<svg xmlns="http://www.w3.org/2000/svg" xmlns:xlink="http://www.w3.org/1999/xlink" width="50" height="52" viewBox="0 0 50 52" fill="none"><defs><path id="path_0"
        transform="translate(0 0) rotate(0 25 25)"
        d="M0 12 A12 12 0 0 1 12 0 H38 A12 12 0 0 1 50 12 V38 A12 12 0 0 1 38 50 H12 A12 12 0 0 1 0 38 Z" /></defs><g opacity="1" transform="translate(0 0)  rotate(0 25 25)"><g opacity="1" transform="translate(0 0)  rotate(0 25 25)"><path id="Rectangle Copy" fill-rule="evenodd" style="fill:#8CAB91" transform="translate(0 0)  rotate(0 25 25)" opacity="1" d="M0 12 A12 12 0 0 1 12 0 H38 A12 12 0 0 1 50 12 V38 A12 12 0 0 1 38 50 H12 A12 12 0 0 1 0 38 Z " /><mask id="mask-0" fill="white"><use xlink:href="#path_0"></use></mask><g mask="url(#mask-0)"></g></g><path id="路径 2" fill-rule="evenodd" style="fill:#FFFFFF" transform="translate(0 18)  rotate(0 25 17)" opacity="1" d="M8.24 4.16C9.53 1.61 12.14 0 15 0C20.52 0 25 4.48 25 10C25 7.35 26.05 4.8 27.93 2.93C29.8 1.05 32.35 0 35 0C37.86 0 40.47 1.61 41.76 4.16C43.05 6.72 42.8 9.78 41.11 12.08L35.07 20.3C33.64 22.24 31.13 23.05 28.84 22.3C26.55 21.54 25 19.41 25 17C25 19.41 23.45 21.54 21.16 22.3C18.87 23.05 16.36 22.24 14.93 20.3L8.89 12.08C7.2 9.78 6.95 6.72 8.24 4.16Z" /><path id="矩形 1" fill-rule="evenodd" style="fill:#FFFFFF" transform="translate(22 10)  rotate(0 3 3)" opacity="1" d="M3,6L3,6C3.8,6 4.56,5.68 5.12,5.12C5.68,4.56 6,3.8 6,3L6,3C6,2.2 5.68,1.44 5.12,0.88C4.56,0.32 3.8,0 3,0L3,0C2.2,0 1.44,0.32 0.88,0.88C0.32,1.44 0,2.2 0,3L0,3C0,3.8 0.32,4.56 0.88,5.12C1.44,5.68 2.2,6 3,6Z " /></g></svg>